<?xml version="1.0" encoding="UTF-8" standalone="no"?>
<svg
   xmlns:dc="http://purl.org/dc/elements/1.1/"
   xmlns:cc="http://creativecommons.org/ns#"
   xmlns:rdf="http://www.w3.org/1999/02/22-rdf-syntax-ns#"
   xmlns:svg="http://www.w3.org/2000/svg"
   xmlns="http://www.w3.org/2000/svg"
   xmlns:sodipodi="http://sodipodi.sourceforge.net/DTD/sodipodi-0.dtd"
   xmlns:inkscape="http://www.inkscape.org/namespaces/inkscape"
   version="1.1"
   width="48"
   height="48"
   viewBox="0 0 48 48"
   enable-background="new 0 0 76.00 76.00"
   xml:space="preserve"
   id="svg2"
   inkscape:version="0.91 r13725"
   sodipodi:docname="appbar.phone.svg"><metadata
     id="metadata10"><rdf:RDF><cc:Work
         rdf:about=""><dc:format>image/svg+xml</dc:format><dc:type
           rdf:resource="http://purl.org/dc/dcmitype/StillImage" /><dc:title></dc:title></cc:Work></rdf:RDF></metadata><defs
     id="defs8" /><sodipodi:namedview
     pagecolor="#ffffff"
     bordercolor="#666666"
     borderopacity="1"
     objecttolerance="10"
     gridtolerance="10"
     guidetolerance="10"
     inkscape:pageopacity="0"
     inkscape:pageshadow="2"
     inkscape:window-width="1280"
     inkscape:window-height="729"
     id="namedview6"
     showgrid="false"
     inkscape:zoom="3.1052632"
     inkscape:cx="-13.686441"
     inkscape:cy="37.355932"
     inkscape:window-x="0"
     inkscape:window-y="0"
     inkscape:window-maximized="1"
     inkscape:current-layer="svg2" /><path
     d="m 39.067554,42.927461 c 0.133508,0.314818 0.200319,0.6343 0.200319,0.95868 0,0.448324 -0.119281,0.866916 -0.357727,1.255658 -0.238446,0.388743 -0.572386,0.685605 -1.001589,0.890703 l -2.017635,0.944455 c -0.787046,0.357727 -1.575258,0.617627 -2.364636,0.779817 C 32.736909,47.918963 31.939252,48 31.133084,48 29.835799,48 28.553906,47.784175 27.28752,47.352524 26.021134,46.920873 24.809667,46.303246 23.653001,45.499526 22.496335,44.695807 21.411261,43.723951 20.397663,42.584075 19.384063,41.444083 18.476687,40.172917 17.6753,38.770576 17.164944,37.993208 16.628354,37.106003 16.065528,36.109079 15.588637,35.260119 15.043652,34.243022 14.430806,33.057673 13.817842,31.87244 13.198933,30.557199 12.574194,29.11195 11.934995,27.666701 11.428255,26.403929 11.053737,25.323636 10.679337,24.243226 10.389587,23.345411 10.18449,22.629957 9.9460435,21.795222 9.7815215,21.079769 9.6908075,20.483479 9.3617645,19.376951 9.1197035,18.27637 8.9646265,17.181735 c -0.15496,-1.094635 -0.232499,-2.17866 -0.232499,-3.25184 0,-1.402224 0.140735,-2.752095 0.42209,-4.0494968 0.281471,-1.2972847 0.713122,-2.5040883 1.2949525,-3.6201775 0.581948,-1.1160893 1.320022,-2.11418 2.214456,-2.9941555 0.894317,-0.8800921 1.951989,-1.5967119 3.173019,-2.1499759 L 17.825597,0.2003177 C 18.140414,0.0666948 18.455233,0 18.770051,0 c 0.443544,0 0.856073,0.1227791 1.237702,0.368454 0.381514,0.2455583 0.667765,0.5854455 0.858522,1.019545 l 3.827724,8.692717 c 0.133506,0.314818 0.200318,0.629637 0.200318,0.944455 0,0.462666 -0.119281,0.890703 -0.357727,1.284225 -0.238446,0.393523 -0.574718,0.688053 -1.008818,0.884057 l -3.934996,1.809622 c -0.519916,0.238563 -0.91822,0.58906 -1.194794,1.051727 -0.27669,0.462666 -0.414977,0.961128 -0.414977,1.495387 0,0.405416 0.07626,0.786929 0.228885,1.144656 l 6.460655,14.752736 c 0.252787,0.567606 0.602119,0.985032 1.048112,1.252044 0.445992,0.26713 0.931279,0.400752 1.455976,0.400752 0.357727,0 0.722566,-0.08115 1.094635,-0.243342 l 3.934996,-1.810089 c 0.310038,-0.133506 0.622524,-0.200318 0.937342,-0.200318 0.433983,0 0.84418,0.122779 1.23059,0.368454 0.386294,0.245675 0.677209,0.583114 0.872746,1.012433 l 3.820612,8.699946 z"
     id="path4"
     inkscape:connector-curvature="0"
     style="fill:#f0ffff;fill-opacity:1;stroke-width:0.2;stroke-linejoin:round" /></svg>