<?xml version="1.0" encoding="UTF-8" standalone="no"?>
<svg
   xmlns:dc="http://purl.org/dc/elements/1.1/"
   xmlns:cc="http://creativecommons.org/ns#"
   xmlns:rdf="http://www.w3.org/1999/02/22-rdf-syntax-ns#"
   xmlns:svg="http://www.w3.org/2000/svg"
   xmlns="http://www.w3.org/2000/svg"
   xmlns:sodipodi="http://sodipodi.sourceforge.net/DTD/sodipodi-0.dtd"
   xmlns:inkscape="http://www.inkscape.org/namespaces/inkscape"
   version="1.1"
   width="48"
   height="48"
   viewBox="0 0 48 48"
   enable-background="new 0 0 76.00 76.00"
   xml:space="preserve"
   id="svg2"
   inkscape:version="0.91 r13725"
   sodipodi:docname="appbar.notification.svg"><metadata
     id="metadata10"><rdf:RDF><cc:Work
         rdf:about=""><dc:format>image/svg+xml</dc:format><dc:type
           rdf:resource="http://purl.org/dc/dcmitype/StillImage" /><dc:title></dc:title></cc:Work></rdf:RDF></metadata><defs
     id="defs8" /><sodipodi:namedview
     pagecolor="#ffffff"
     bordercolor="#666666"
     borderopacity="1"
     objecttolerance="10"
     gridtolerance="10"
     guidetolerance="10"
     inkscape:pageopacity="0"
     inkscape:pageshadow="2"
     inkscape:window-width="1280"
     inkscape:window-height="729"
     id="namedview6"
     showgrid="false"
     inkscape:zoom="3.1052632"
     inkscape:cx="-6.6016949"
     inkscape:cy="38"
     inkscape:window-x="0"
     inkscape:window-y="0"
     inkscape:window-maximized="1"
     inkscape:current-layer="svg2" /><path
     d="m 3.4285796,7.999962 41.1428404,0 C 46.465025,7.999962 48,9.534937 48,11.428541 l 0,25.142917 c 0,1.893491 -1.535089,3.42858 -3.42858,3.42858 l -41.1428404,0 C 1.5349751,40.000038 0,38.464949 0,36.571458 L 0,11.428541 C 0,9.535051 1.5349751,7.999962 3.4285796,7.999962 Z m 2.2857197,7.999905 0,2.285719 33.1429357,0 0,-2.285719 -33.1429357,0 z m 0,6.857159 0,2.285719 25.1429167,0 0,-2.285719 -25.1429167,0 z m 0,6.857159 0,2.28572 33.1429357,0 0,-2.28572 -33.1429357,0 z"
     id="path4"
     inkscape:connector-curvature="0"
     style="fill:#f0ffff;fill-opacity:1;stroke-width:0.2;stroke-linejoin:round" /></svg>