<?xml version="1.0" encoding="UTF-8" standalone="no"?>
<svg
   xmlns:dc="http://purl.org/dc/elements/1.1/"
   xmlns:cc="http://creativecommons.org/ns#"
   xmlns:rdf="http://www.w3.org/1999/02/22-rdf-syntax-ns#"
   xmlns:svg="http://www.w3.org/2000/svg"
   xmlns="http://www.w3.org/2000/svg"
   xmlns:sodipodi="http://sodipodi.sourceforge.net/DTD/sodipodi-0.dtd"
   xmlns:inkscape="http://www.inkscape.org/namespaces/inkscape"
   version="1.1"
   width="48"
   height="48"
   viewBox="0 0 47.999623 47.999623"
   enable-background="new 0 0 76.01 76.01"
   xml:space="preserve"
   id="svg2"
   inkscape:version="0.91 r13725"
   sodipodi:docname="appbar.home.location.round.svg"><metadata
     id="metadata10"><rdf:RDF><cc:Work
         rdf:about=""><dc:format>image/svg+xml</dc:format><dc:type
           rdf:resource="http://purl.org/dc/dcmitype/StillImage" /><dc:title></dc:title></cc:Work></rdf:RDF></metadata><defs
     id="defs8" /><sodipodi:namedview
     pagecolor="#ffffff"
     bordercolor="#666666"
     borderopacity="1"
     objecttolerance="10"
     gridtolerance="10"
     guidetolerance="10"
     inkscape:pageopacity="0"
     inkscape:pageshadow="2"
     inkscape:window-width="1280"
     inkscape:window-height="729"
     id="namedview6"
     showgrid="false"
     inkscape:zoom="3.1048302"
     inkscape:cx="-5.3143002"
     inkscape:cy="38.005299"
     inkscape:window-x="0"
     inkscape:window-y="0"
     inkscape:window-maximized="1"
     inkscape:current-layer="svg2" /><path
     d="m 40.420004,27.157628 c 4.185752,0 7.578987,3.016237 7.578987,6.736836 0,0.5816 -0.08285,1.145897 -0.238829,1.684177 L 40.420004,47.368135 33.079971,35.578641 c -0.155851,-0.53828 -0.238829,-1.102577 -0.238829,-1.684177 0,-3.720599 3.393236,-6.736836 7.578862,-6.736836 z m 0,4.631582 c -1.162695,0 -2.105254,0.942559 -2.105254,2.105254 0,1.162695 0.942559,2.105253 2.105254,2.105253 1.162821,0 2.105253,-0.942558 2.105253,-2.105253 0,-1.162695 -0.942432,-2.105254 -2.105253,-2.105254 z m -34.1043704,14.315697 0,-22.73671 -2.5262032,2.52633 L -2.2751465e-7,19.578767 23.999811,0.63148757 32.8419,7.6120772 l 0,-4.7701305 5.052532,-0.9473577 0,9.706343 10.105191,7.977835 -3.542014,5.903398 -0.989541,-0.329889 -1.784079,-1.784079 0,1.437898 -1.263985,-0.06959 c -0.871958,0 -1.718278,0.09813 -2.525572,0.28278 l 0,-4.177417 L 23.999811,9.3683704 10.10519,20.841868 l 0,21.473609 7.578861,0 0,-13.894495 12.63152,0 0,5.401745 0,8.49275 4.271761,0 2.359364,3.78943 -30.6310624,0 z"
     id="path4"
     inkscape:connector-curvature="0"
     style="fill:#f0ffff;fill-opacity:1;stroke-width:0.2;stroke-linejoin:round" /></svg>