<?xml version="1.0" encoding="UTF-8" standalone="no"?>
<svg
   xmlns:dc="http://purl.org/dc/elements/1.1/"
   xmlns:cc="http://creativecommons.org/ns#"
   xmlns:rdf="http://www.w3.org/1999/02/22-rdf-syntax-ns#"
   xmlns:svg="http://www.w3.org/2000/svg"
   xmlns="http://www.w3.org/2000/svg"
   xmlns:sodipodi="http://sodipodi.sourceforge.net/DTD/sodipodi-0.dtd"
   xmlns:inkscape="http://www.inkscape.org/namespaces/inkscape"
   version="1.1"
   width="48"
   height="48"
   viewBox="0 0 48 48"
   enable-background="new 0 0 76.00 76.00"
   xml:space="preserve"
   id="svg2"
   inkscape:version="0.91 r13725"
   sodipodi:docname="appbar.notification.star.svg"><metadata
     id="metadata10"><rdf:RDF><cc:Work
         rdf:about=""><dc:format>image/svg+xml</dc:format><dc:type
           rdf:resource="http://purl.org/dc/dcmitype/StillImage" /><dc:title></dc:title></cc:Work></rdf:RDF></metadata><defs
     id="defs8" /><sodipodi:namedview
     pagecolor="#ffffff"
     bordercolor="#666666"
     borderopacity="1"
     objecttolerance="10"
     gridtolerance="10"
     guidetolerance="10"
     inkscape:pageopacity="0"
     inkscape:pageshadow="2"
     inkscape:window-width="1280"
     inkscape:window-height="729"
     id="namedview6"
     showgrid="false"
     inkscape:zoom="3.1052632"
     inkscape:cx="-6.6016949"
     inkscape:cy="38"
     inkscape:window-x="0"
     inkscape:window-y="0"
     inkscape:window-maximized="1"
     inkscape:current-layer="svg2" /><path
     d="m 0,12.765882 6.6626184,0 2.1884983,-6.127672 2.1883963,6.127672 6.662618,0 -5.548607,3.975226 2.484771,6.237562 -5.7871783,-3.404228 -5.1063938,3.404228 1.3616709,-4.350137 0,-0.742776 0.1898558,0.136341 L 5.6680972,16.833942 0,12.765882 Z m 44.936164,1.02e-4 C 46.628218,12.765984 48,14.137766 48,15.829821 l 0,22.468133 c 0,1.692054 -1.371782,3.063836 -3.063836,3.063836 l -36.7659339,0 c -1.6921567,0 -3.0638363,-1.371782 -3.0638363,-3.063836 l 0,-13.815757 3.9148679,-2.609878 7.7718293,4.170187 -6.580303,0 0,2.042558 22.468133,0 0,-2.042558 -15.113803,0 -1.421211,-4.085115 23.683965,0 0,-2.042557 -24.394571,0 -0.851951,-2.449027 6.340609,-4.699823 24.012205,0 z m -34.723376,19.404195 0,2.042557 29.617084,0 0,-2.042557 -29.617084,0 z"
     id="path4"
     inkscape:connector-curvature="0"
     style="fill:#f0ffff;fill-opacity:1;stroke-width:0.2;stroke-linejoin:round" /></svg>