<?xml version="1.0" encoding="UTF-8" standalone="no"?>
<svg
   xmlns:dc="http://purl.org/dc/elements/1.1/"
   xmlns:cc="http://creativecommons.org/ns#"
   xmlns:rdf="http://www.w3.org/1999/02/22-rdf-syntax-ns#"
   xmlns:svg="http://www.w3.org/2000/svg"
   xmlns="http://www.w3.org/2000/svg"
   xmlns:sodipodi="http://sodipodi.sourceforge.net/DTD/sodipodi-0.dtd"
   xmlns:inkscape="http://www.inkscape.org/namespaces/inkscape"
   version="1.1"
   width="48"
   height="48"
   viewBox="0 0 48 48"
   enable-background="new 0 0 76.00 76.00"
   xml:space="preserve"
   id="svg2"
   inkscape:version="0.91 r13725"
   sodipodi:docname="appbar.user.add.svg"><metadata
     id="metadata10"><rdf:RDF><cc:Work
         rdf:about=""><dc:format>image/svg+xml</dc:format><dc:type
           rdf:resource="http://purl.org/dc/dcmitype/StillImage" /><dc:title></dc:title></cc:Work></rdf:RDF></metadata><defs
     id="defs8" /><sodipodi:namedview
     pagecolor="#ffffff"
     bordercolor="#666666"
     borderopacity="1"
     objecttolerance="10"
     gridtolerance="10"
     guidetolerance="10"
     inkscape:pageopacity="0"
     inkscape:pageshadow="2"
     inkscape:window-width="1280"
     inkscape:window-height="729"
     id="namedview6"
     showgrid="false"
     inkscape:zoom="3.1052632"
     inkscape:cx="-5.3135593"
     inkscape:cy="37.355932"
     inkscape:window-x="0"
     inkscape:window-y="0"
     inkscape:window-maximized="1"
     inkscape:current-layer="svg2" /><path
     d="m 10.560029,23.040019 5.760004,0 0,9.600049 9.599928,0 0,5.760005 -9.599928,0 0,9.599927 -5.760004,0 0,-9.599927 -9.6000485,0 0,-5.760005 9.6000485,0 0,-9.600049 z M 24,0 c 6.720045,0 9.600048,3.8400437 8.630791,11.900049 0.865941,0.496573 1.449217,1.430179 1.449217,2.499963 0,1.309037 -0.873337,2.414109 -2.069235,2.764317 -0.499606,1.78063 -1.275448,3.356931 -2.250769,4.617948 l 0,6.057706 c 3.200016,0.640028 5.760005,0.960041 9.600049,2.880002 3.839922,1.920083 5.119977,3.680098 7.679966,6.240087 l 0,9.119967 -28.800024,0 0,-5.760005 9.600048,0 -1.21e-4,-9.600049 -9.599927,0 0,-8.937708 0,-0.662219 -0.474625,0 c -0.753772,-1.134539 -1.360574,-2.474377 -1.776142,-3.955729 -1.195898,-0.350208 -2.069236,-1.45528 -2.069236,-2.764317 0,-1.069784 0.583276,-2.00339 1.449216,-2.499963 C 14.399952,3.8400437 17.279954,0 24,0 Z m -23.0400195,46.080039 0,-5.760005 7.679966,0 0,5.760005 -7.679966,0 z"
     id="path4"
     inkscape:connector-curvature="0"
     style="fill:#f0ffff;fill-opacity:1;stroke-width:0.2;stroke-linejoin:round" /></svg>