<?xml version="1.0" encoding="UTF-8" standalone="no"?>
<svg
   xmlns:dc="http://purl.org/dc/elements/1.1/"
   xmlns:cc="http://creativecommons.org/ns#"
   xmlns:rdf="http://www.w3.org/1999/02/22-rdf-syntax-ns#"
   xmlns:svg="http://www.w3.org/2000/svg"
   xmlns="http://www.w3.org/2000/svg"
   xmlns:sodipodi="http://sodipodi.sourceforge.net/DTD/sodipodi-0.dtd"
   xmlns:inkscape="http://www.inkscape.org/namespaces/inkscape"
   version="1.1"
   width="48"
   height="48"
   viewBox="0 0 48.000001 48.000001"
   enable-background="new 0 0 76.00 76.00"
   xml:space="preserve"
   id="svg2"
   inkscape:version="0.91 r13725"
   sodipodi:docname="appbar.camera.switch.svg"><metadata
     id="metadata10"><rdf:RDF><cc:Work
         rdf:about=""><dc:format>image/svg+xml</dc:format><dc:type
           rdf:resource="http://purl.org/dc/dcmitype/StillImage" /><dc:title></dc:title></cc:Work></rdf:RDF></metadata><defs
     id="defs8" /><sodipodi:namedview
     pagecolor="#ffffff"
     bordercolor="#666666"
     borderopacity="1"
     objecttolerance="10"
     gridtolerance="10"
     guidetolerance="10"
     inkscape:pageopacity="0"
     inkscape:pageshadow="2"
     inkscape:window-width="1280"
     inkscape:window-height="729"
     id="namedview6"
     showgrid="false"
     units="px"
     width="48mm"
     inkscape:zoom="3.1052632"
     inkscape:cx="-5.3135593"
     inkscape:cy="38"
     inkscape:window-x="0"
     inkscape:window-y="0"
     inkscape:window-maximized="1"
     inkscape:current-layer="svg2" /><path
     d="m 33.247971,5.7838571 c 2.961644,0 5.362576,2.40093 5.362576,5.3625399 0,2.9617 -2.400932,5.3626 -5.362576,5.3626 -2.961643,0 -5.362576,-2.4009 -5.362576,-5.3626 0,-2.9616099 2.400933,-5.3625399 5.362576,-5.3625399 z m 4.290061,12.8701399 c 0,0 10.725152,-1.0725 10.457023,20.9141 l -3.485674,0.8044 c 0,0 -0.536258,-8.0439 -2.681288,-12.3339 l 0,13.4064 c 0,0 -3.753803,1.8094 -8.043864,1.8432 -4.290061,0.034 -8.311993,-1.8432 -8.311993,-1.8432 l 0,-13.4064 c -2.14503,4.29 -2.681288,12.3339 -2.681288,12.3339 l -3.485674,-0.8044 c -0.268129,-21.9866 10.457023,-20.9141 10.457023,-20.9141 l 7.775735,0 z m -26.81288,-8.5801 c 0,-2.8136199 2.549047,-5.3625499 5.362576,-5.3625499 l 6.435091,0 c 1.94994,0 3.77268,1.22416 4.70802,2.9123 -0.606507,1.03369 -0.954217,2.23765 -0.954217,3.5227499 0,2.2221 1.039589,4.2013 2.65898,5.4779 -1.620678,0.2811 -3.018701,0.9417 -4.224637,1.8673 -1.256559,-1.2267 -2.974728,-1.9826 -4.869434,-1.9826 -3.850222,0 -6.971349,3.1212 -6.971349,6.9714 0,3.3405 2.349559,6.1323 5.486345,6.8128 -0.485635,2.0571 -0.775429,3.9953 -0.947889,5.5212 l -12.046062,0 C 2.400933,35.814397 3.9033495e-8,33.413497 3.9033495e-8,30.451797 l 0,-15.0152 C 3.9033495e-8,12.474997 2.400933,10.073997 5.362576,10.073997 l 5.362576,-10e-5 z m -4.826318,3.2176 c -0.888472,0 -1.608773,0.9604 -1.608773,2.145 0,1.1847 0.720301,2.145 1.608773,2.145 0.888471,0 1.608772,-0.9603 1.608772,-2.145 0,-1.1846 -0.720301,-2.145 -1.608772,-2.145 z"
     id="path4"
     style="fill:#f0ffff;fill-opacity:1;stroke-width:0.2;stroke-linejoin:round"
     inkscape:connector-curvature="0" /></svg>