<?xml version="1.0" encoding="UTF-8" standalone="no"?>
<svg
   xmlns:dc="http://purl.org/dc/elements/1.1/"
   xmlns:cc="http://creativecommons.org/ns#"
   xmlns:rdf="http://www.w3.org/1999/02/22-rdf-syntax-ns#"
   xmlns:svg="http://www.w3.org/2000/svg"
   xmlns="http://www.w3.org/2000/svg"
   xmlns:sodipodi="http://sodipodi.sourceforge.net/DTD/sodipodi-0.dtd"
   xmlns:inkscape="http://www.inkscape.org/namespaces/inkscape"
   version="1.1"
   width="48"
   height="48"
   viewBox="0 0 48 48"
   enable-background="new 0 0 76.00 76.00"
   xml:space="preserve"
   id="svg2"
   inkscape:version="0.91 r13725"
   sodipodi:docname="appbar.3d.collada.svg"><metadata
     id="metadata10"><rdf:RDF><cc:Work
         rdf:about=""><dc:format>image/svg+xml</dc:format><dc:type
           rdf:resource="http://purl.org/dc/dcmitype/StillImage" /><dc:title></dc:title></cc:Work></rdf:RDF></metadata><defs
     id="defs8" /><sodipodi:namedview
     pagecolor="#ffffff"
     bordercolor="#666666"
     borderopacity="1"
     objecttolerance="10"
     gridtolerance="10"
     guidetolerance="10"
     inkscape:pageopacity="0"
     inkscape:pageshadow="2"
     inkscape:window-width="1280"
     inkscape:window-height="744"
     id="namedview6"
     showgrid="false"
     inkscape:zoom="3.1052632"
     inkscape:cx="91.940678"
     inkscape:cy="38"
     inkscape:window-x="0"
     inkscape:window-y="27"
     inkscape:window-maximized="1"
     inkscape:current-layer="svg2" /><path
     d="m 26.465236,7.4326365 c 9.425782,0 17.585891,3.0399265 21.534764,7.4674905 l 0,5.475055 c -2.886873,-4.26371 -10.661782,-7.3176 -19.8,-7.3176 -11.598,0 -21,4.919346 -21,10.987527 0,3.931527 3.946473,7.380655 9.879709,9.322254 C 8.452036,31.315582 2.4,26.520599 2.4,20.932636 2.4,13.476818 13.174364,7.4326365 26.465236,7.4326365 Z M 22.734764,40.567363 C 13.308982,40.567363 5.148873,37.527437 1.2,33.099981 L 0,27.624927 c 2.886873,4.2636 11.861782,7.317492 21,7.317492 11.598,0 21,-4.919238 21,-10.987528 0,-3.931418 -3.946473,-7.380654 -9.879709,-9.322254 C 40.747964,16.684418 46.8,21.479399 46.8,27.067363 c 0,7.455928 -10.774364,13.5 -24.065236,13.5 z"
     id="path4"
     inkscape:connector-curvature="0"
     style="fill:#f0ffff;fill-opacity:1;stroke-width:0.2;stroke-linejoin:round" /></svg>