<?xml version="1.0" encoding="UTF-8" standalone="no"?>
<svg
   xmlns:dc="http://purl.org/dc/elements/1.1/"
   xmlns:cc="http://creativecommons.org/ns#"
   xmlns:rdf="http://www.w3.org/1999/02/22-rdf-syntax-ns#"
   xmlns:svg="http://www.w3.org/2000/svg"
   xmlns="http://www.w3.org/2000/svg"
   xmlns:sodipodi="http://sodipodi.sourceforge.net/DTD/sodipodi-0.dtd"
   xmlns:inkscape="http://www.inkscape.org/namespaces/inkscape"
   version="1.1"
   width="48"
   height="48"
   viewBox="0 0 48 48"
   enable-background="new 0 0 76.00 76.00"
   xml:space="preserve"
   id="svg2"
   inkscape:version="0.91 r13725"
   sodipodi:docname="appbar.draw.pixel.grid.svg"><metadata
     id="metadata10"><rdf:RDF><cc:Work
         rdf:about=""><dc:format>image/svg+xml</dc:format><dc:type
           rdf:resource="http://purl.org/dc/dcmitype/StillImage" /><dc:title></dc:title></cc:Work></rdf:RDF></metadata><defs
     id="defs8" /><sodipodi:namedview
     pagecolor="#ffffff"
     bordercolor="#666666"
     borderopacity="1"
     objecttolerance="10"
     gridtolerance="10"
     guidetolerance="10"
     inkscape:pageopacity="0"
     inkscape:pageshadow="2"
     inkscape:window-width="1280"
     inkscape:window-height="744"
     id="namedview6"
     showgrid="false"
     inkscape:zoom="3.1052632"
     inkscape:cx="32.364407"
     inkscape:cy="38"
     inkscape:window-x="0"
     inkscape:window-y="27"
     inkscape:window-maximized="1"
     inkscape:current-layer="svg2" /><path
     d="m 29.647146,-1.41e-4 8.470613,0 0,8.470613 -8.470613,0 0,-8.470613 z m -1.41e-4,9.882523 8.470472,0 0,8.470613 -8.470472,0 0,-8.470613 z m 9.882241,-9.882241 8.470613,0 0,8.470472 -8.470613,0 0,-8.470472 z m 0,9.882241 8.470613,0 0,8.470613 -8.470613,0 0,-8.470613 z M 9.882241,1.41e-4 l 8.470613,0 0,8.470472 -8.470613,0 0,-8.470472 z m 0,9.882241 8.470613,0 0,8.470613 -8.470613,0 0,-8.470613 z M 19.764623,0 l 8.470613,0 0,8.470613 -8.470613,0 0,-8.470613 z m 0,9.882382 8.470613,0 0,8.470472 -8.470613,0 0,-8.470472 z m 9.882382,9.882382 8.470613,0 0,8.470613 -8.470613,0 0,-8.470613 z m -19.764623,0 8.470613,0 0,8.470613 -8.470613,0 0,-8.470613 z m -1.41e-4,9.882382 8.470613,0 0,8.470613 -8.470613,0 0,-8.470613 z m 1.41e-4,9.882382 8.470613,0 0,8.470472 -8.470613,0 0,-8.470472 z m 9.882382,-19.764764 8.470472,0 0,8.470613 -8.470472,0 0,-8.470613 z m 0,9.882382 8.470472,0 0,8.470613 -8.470472,0 0,-8.470613 z M 0,1.41e-4 l 8.470472,0 0,8.470472 L 0,8.470613 0,1.41e-4 Z m 0,9.882241 8.470472,0 0,8.470613 -8.470472,0 0,-8.470613 z m 0,9.882382 8.470613,0 0,8.470613 -8.470613,0 0,-8.470613 z m 0,9.882382 8.470613,0 0,8.470613 -8.470613,0 0,-8.470613 z m 0,9.882382 8.470613,0 0,8.470472 L 0,48 0,39.529528 Z m 19.764623,0 8.470613,0 0,8.470472 -8.470613,0 0,-8.470472 z m 1.411769,1.411769 0,5.647075 5.647075,0 0,-5.647075 -5.647075,0 z m 18.352995,-21.176533 8.470613,0 0,8.470613 -8.470613,0 0,-8.470613 z m 1.411769,1.411769 0,5.647075 5.647075,0 0,-5.647075 -5.647075,0 z m -11.294151,8.470613 8.470613,0 0,8.470613 -8.470613,0 0,-8.470613 z m 1.411769,1.411769 0,5.647075 5.647075,0 0,-5.647075 -5.647075,0 z m 8.470613,-1.411769 8.470613,0 0,8.470613 -8.470613,0 0,-8.470613 z m 1.411769,1.411769 0,5.647075 5.647075,0 0,-5.647075 -5.647075,0 z m -11.294151,8.470613 8.470613,0 0,8.470472 -8.470613,0 0,-8.470472 z m 1.411769,1.411769 0,5.647075 5.647075,0 0,-5.647075 -5.647075,0 z m 8.470613,-1.411769 8.470613,0 L 48,48 l -8.470613,0 0,-8.470472 z m 1.411769,1.411769 0,5.647075 5.647075,0 0,-5.647075 -5.647075,0 z M 1.411769,1.411769 l 0,5.647075 5.647075,0 0,-5.647075 -5.647075,0 z m 19.764764,9.882382 0,5.647075 5.647075,0 0,-5.647075 -5.647075,0 z m -9.882382,0 0,5.647075 5.647075,0 0,-5.647075 -5.647075,0 z m -9.882382,9.882241 0,5.647075 5.647075,0 0,-5.647075 -5.647075,0 z m 0,-9.882241 0,5.647075 5.647075,0 0,-5.647075 -5.647075,0 z m 29.647005,0 0,5.647075 5.647075,0 0,-5.647075 -5.647075,0 z m 9.882382,0 0,5.647075 5.647075,0 0,-5.647075 -5.647075,0 z m -29.647005,-9.882382 0,5.647075 5.647075,0 0,-5.647075 -5.647075,0 z m 9.882382,0 0,5.647075 5.647075,0 0,-5.647075 -5.647075,0 z m -9.882382,19.764623 0,5.647075 5.647075,0 0,-5.647075 -5.647075,0 z m -9.882382,9.882382 0,5.647075 5.647075,0 0,-5.647075 -5.647075,0 z m 9.882382,0 0,5.647075 5.647075,0 0,-5.647075 -5.647075,0 z m 9.882382,0 0,5.647075 5.647075,0 0,-5.647075 -5.647075,0 z m -19.764764,9.882382 0,5.647075 5.647075,0 0,-5.647075 -5.647075,0 z m 9.882382,0 0,5.647075 5.647075,0 0,-5.647075 -5.647075,0 z m 19.764764,-39.529528 0,5.647075 5.647075,0 0,-5.647075 -5.647075,0 z m 9.882382,0 0,5.647075 5.647075,0 0,-5.647075 -5.647075,0 z m -9.882382,19.764764 0,5.647075 5.647075,0 0,-5.647075 -5.647075,0 z m -9.882382,0 0,5.647075 5.647075,0 0,-5.647075 -5.647075,0 z"
     id="path4"
     style="fill:#f0ffff;fill-opacity:1;stroke-width:0.2;stroke-linejoin:round"
     inkscape:connector-curvature="0" /></svg>