<?xml version="1.0" encoding="UTF-8" standalone="no"?>
<svg
   xmlns:dc="http://purl.org/dc/elements/1.1/"
   xmlns:cc="http://creativecommons.org/ns#"
   xmlns:rdf="http://www.w3.org/1999/02/22-rdf-syntax-ns#"
   xmlns:svg="http://www.w3.org/2000/svg"
   xmlns="http://www.w3.org/2000/svg"
   xmlns:sodipodi="http://sodipodi.sourceforge.net/DTD/sodipodi-0.dtd"
   xmlns:inkscape="http://www.inkscape.org/namespaces/inkscape"
   version="1.1"
   width="48"
   height="48"
   viewBox="0 0 48 48"
   enable-background="new 0 0 76.00 76.00"
   xml:space="preserve"
   id="svg2"
   inkscape:version="0.91 r13725"
   sodipodi:docname="appbar.paperclip.rotated.svg"><metadata
     id="metadata10"><rdf:RDF><cc:Work
         rdf:about=""><dc:format>image/svg+xml</dc:format><dc:type
           rdf:resource="http://purl.org/dc/dcmitype/StillImage" /><dc:title></dc:title></cc:Work></rdf:RDF></metadata><defs
     id="defs8" /><sodipodi:namedview
     pagecolor="#ffffff"
     bordercolor="#666666"
     borderopacity="1"
     objecttolerance="10"
     gridtolerance="10"
     guidetolerance="10"
     inkscape:pageopacity="0"
     inkscape:pageshadow="2"
     inkscape:window-width="1241"
     inkscape:window-height="736"
     id="namedview6"
     showgrid="false"
     inkscape:zoom="3.1052632"
     inkscape:cx="-14.491525"
     inkscape:cy="37.355933"
     inkscape:window-x="39"
     inkscape:window-y="27"
     inkscape:window-maximized="1"
     inkscape:current-layer="svg2" /><path
     d="m 17.254837,41.725842 17.15728,-17.157403 c 2.274184,-2.274185 2.274184,-5.961305 0,-8.235489 -2.274185,-2.274184 -5.961305,-2.274184 -8.23549,1.22e-4 l -13.725775,13.725775 2.745082,2.745204 13.725898,-13.725897 c 0.75802,-0.758143 1.98706,-0.758143 2.74508,0 0.758144,0.758021 0.07184,1.30076 -0.686178,2.058903 l -17.15728,17.157279 c -1.895235,1.895114 -4.2815954,2.581415 -6.1767084,0.686301 -1.895113,-1.895111 -1.895113,-4.967775 0,-6.862887 L 28.921832,10.842664 c 3.032204,-3.0322045 7.948488,-3.0322045 10.980693,0 3.032204,3.032206 3.032204,7.948489 0,10.980693 l -16.47098,16.470979 4.117684,4.117807 16.470979,-16.470979 c 5.306389,-5.306511 5.306389,-13.909794 0,-19.2161835 -5.306389,-5.306389 -13.909793,-5.306389 -19.216183,0 L 2.8427615,28.686244 c -3.79034852,3.790349 -3.79034852,9.93555 0,13.725899 3.790225,3.790224 9.9355495,3.790224 13.7257745,0 l 0.652464,-0.720138 0.03384,0.03383 z"
     id="path4"
     style="fill:#f0ffff;fill-opacity:1"
     inkscape:connector-curvature="0" /></svg>