<?xml version="1.0" encoding="UTF-8" standalone="no"?>
<svg
   xmlns:dc="http://purl.org/dc/elements/1.1/"
   xmlns:cc="http://creativecommons.org/ns#"
   xmlns:rdf="http://www.w3.org/1999/02/22-rdf-syntax-ns#"
   xmlns:svg="http://www.w3.org/2000/svg"
   xmlns="http://www.w3.org/2000/svg"
   xmlns:sodipodi="http://sodipodi.sourceforge.net/DTD/sodipodi-0.dtd"
   xmlns:inkscape="http://www.inkscape.org/namespaces/inkscape"
   version="1.1"
   width="48"
   height="48"
   viewBox="0 0 48 48"
   enable-background="new 0 0 76.00 76.00"
   xml:space="preserve"
   id="svg2"
   inkscape:version="0.91 r13725"
   sodipodi:docname="appbar.user.tie.svg"><metadata
     id="metadata10"><rdf:RDF><cc:Work
         rdf:about=""><dc:format>image/svg+xml</dc:format><dc:type
           rdf:resource="http://purl.org/dc/dcmitype/StillImage" /><dc:title></dc:title></cc:Work></rdf:RDF></metadata><defs
     id="defs8" /><sodipodi:namedview
     pagecolor="#ffffff"
     bordercolor="#666666"
     borderopacity="1"
     objecttolerance="10"
     gridtolerance="10"
     guidetolerance="10"
     inkscape:pageopacity="0"
     inkscape:pageshadow="2"
     inkscape:window-width="1280"
     inkscape:window-height="729"
     id="namedview6"
     showgrid="false"
     inkscape:zoom="3.1052632"
     inkscape:cx="32.364407"
     inkscape:cy="38"
     inkscape:window-x="0"
     inkscape:window-y="0"
     inkscape:window-maximized="1"
     inkscape:current-layer="svg2" /><path
     d="M 24,0 C 31.000042,0 34.000042,4.000042 32.9904,12.395874 33.892421,12.913137 34.5,13.885642 34.5,15 c 0,1.363579 -0.909726,2.514695 -2.155453,2.879495 -0.520421,1.854821 -1.328589,3.4968 -2.344547,4.810358 l 0,6.310105 c 3.333347,0.666695 6,1.000042 10.000042,3 3.999916,2.000084 5.333305,3.833431 7.999958,6.500084 L 48,48 0,48 0,38.500042 c 2.666653,-2.666653 4.000042,-4.5 7.999958,-6.500084 C 12,30 14.666653,29.666653 18,28.999958 l 0,-6.310105 C 16.984042,21.376295 16.175874,19.734316 15.655453,17.879495 14.409726,17.514695 13.5,16.363579 13.5,15 c 0,-1.114358 0.607579,-2.086863 1.5096,-2.604126 C 13.999958,4.000042 16.999958,0 24,0 Z M 20.500042,31.999958 22.5,36 l 3,0 1.999958,-4.000042 -6.999916,0 z m 1.5,6 L 24,46.000042 l 1.999958,-8.000084 -3.999916,0 z"
     id="path4"
     inkscape:connector-curvature="0"
     style="fill:#f0ffff;fill-opacity:1;stroke-width:0.2;stroke-linejoin:round" /></svg>